<?xml version="1.0" standalone="no"?>
<!DOCTYPE svg PUBLIC "-//W3C//DTD SVG 20010904//EN"
 "http://www.w3.org/TR/2001/REC-SVG-20010904/DTD/svg10.dtd">
<svg version="1.0" xmlns="http://www.w3.org/2000/svg"
 width="667.000000pt" height="667.000000pt" viewBox="0 0 667.000000 667.000000"
 preserveAspectRatio="xMidYMid meet">
<metadata>
Created by potrace 1.11, written by Peter Selinger 2001-2013
</metadata>
<g transform="translate(0.000000,667.000000) scale(0.100000,-0.100000)"
fill="#000000" stroke="none">
<path d="M2128 6625 c-2 -2 -32 -5 -68 -8 -103 -10 -252 -64 -366 -133 -18
-11 -60 -45 -93 -77 -34 -31 -70 -57 -80 -57 -35 0 -136 -61 -183 -110 -58
-61 -115 -144 -160 -235 -42 -84 -105 -255 -114 -310 -3 -22 -8 -43 -10 -46
-2 -3 -5 -19 -8 -35 -2 -16 -10 -63 -17 -104 -18 -112 -15 -365 6 -455 61
-268 161 -484 313 -671 70 -87 134 -156 171 -185 25 -19 49 -39 55 -44 50 -48
216 -120 216 -94 0 5 -6 9 -12 9 -7 1 -1 8 14 16 17 9 63 16 120 18 51 2 103
6 114 9 12 3 39 10 60 16 21 6 40 8 42 6 3 -3 7 -38 10 -79 5 -83 -9 -179 -41
-279 -20 -65 -24 -69 -77 -99 -30 -18 -74 -45 -97 -62 -23 -17 -58 -42 -77
-56 -20 -14 -36 -29 -36 -34 0 -5 29 -55 64 -110 90 -142 85 -125 66 -256 -25
-175 -17 -504 16 -650 3 -14 8 -36 10 -49 8 -42 100 -283 153 -400 57 -125 56
-131 -7 -152 -99 -32 -217 -110 -275 -181 -27 -33 -187 -273 -199 -298 -7 -14
-161 -132 -228 -174 -41 -27 -77 -50 -79 -52 -2 -2 2 -16 9 -31 7 -16 14 -32
14 -38 1 -14 91 -127 160 -202 33 -35 69 -78 81 -96 l22 -31 -39 -75 c-21 -42
-38 -81 -38 -87 0 -14 89 -98 248 -233 118 -100 264 -214 317 -247 37 -24 43
-33 43 -61 0 -18 -4 -31 -8 -28 -6 4 -20 -40 -20 -66 0 -5 707 -9 1634 -9
l1634 0 7 43 c4 23 9 51 11 62 22 105 21 559 -1 673 -1 9 -6 37 -9 62 -3 25
-9 56 -12 70 -3 14 -7 36 -10 50 -3 14 -11 43 -19 65 -19 55 -63 205 -68 235
-12 66 -178 574 -207 635 -11 22 -44 96 -75 165 l-55 124 23 25 22 25 -28 -18
c-28 -17 -28 -17 -18 2 11 20 51 37 51 21 0 -24 221 107 333 199 78 63 102
101 91 141 -4 14 -8 63 -9 107 -1 45 -6 88 -11 95 -5 8 -10 22 -11 32 -4 25
-22 57 -31 56 -18 -3 -20 3 -12 32 10 35 -2 77 -25 85 -8 4 -32 -8 -55 -26
-23 -18 -44 -30 -47 -26 -3 3 -12 1 -19 -5 -8 -7 -14 -7 -19 1 -9 15 4 31 23
26 12 -3 27 11 50 46 35 55 40 79 17 98 -12 10 -23 7 -57 -13 -24 -14 -54 -35
-68 -48 -14 -12 -38 -34 -55 -48 -27 -24 -27 -23 4 11 38 42 38 79 -2 99 -23
12 -29 20 -62 78 -11 20 -60 103 -109 184 l-88 148 45 48 c78 83 92 120 91
236 0 90 -3 105 -28 148 -52 91 -119 143 -191 149 -14 1 -25 5 -26 8 -14 107
-10 103 -77 78 -143 -54 -342 -190 -378 -259 -14 -29 -14 -29 21 -46 34 -16
39 -27 35 -66 -2 -28 21 -129 38 -162 61 -121 167 -171 351 -167 29 1 59 6 66
12 11 9 91 -110 200 -298 6 -9 23 -38 38 -64 23 -39 27 -54 21 -80 -22 -94
-36 -134 -58 -168 -13 -19 -37 -58 -54 -85 -17 -28 -39 -59 -49 -70 -16 -18
-116 -146 -118 -152 -1 -2 -10 -4 -21 -6 -58 -8 -210 -133 -334 -273 -20 -21
-63 -60 -95 -85 -33 -25 -64 -54 -70 -64 -23 -45 -27 -49 -37 -31 -5 9 -14 16
-21 16 -38 1 -37 18 7 83 24 36 59 103 77 149 90 230 12 511 -175 628 -31 19
-58 44 -60 55 -3 11 -7 76 -9 145 -4 108 -8 133 -31 183 -14 32 -26 66 -26 76
0 35 -39 113 -60 118 -11 3 -20 13 -20 22 0 10 -14 30 -31 47 -17 16 -37 41
-45 57 -8 15 -23 27 -34 27 -10 0 -25 8 -32 19 -11 15 -148 81 -170 81 -20 0
-58 -52 -73 -102 -18 -55 -19 -56 -50 -51 -19 3 -35 0 -39 -6 -5 -7 2 -11 16
-11 34 0 48 -13 41 -38 -6 -26 -7 -26 -33 -10 -29 19 -35 3 -11 -35 27 -44 27
-57 -1 -57 -29 0 -172 146 -218 222 -18 31 -50 76 -69 98 -37 42 -35 42 -201
75 -14 3 -52 8 -85 11 -47 5 -64 11 -81 30 -17 21 -49 95 -62 144 -8 31 -11
176 -4 187 6 10 28 10 97 2 84 -11 140 -14 175 -10 8 1 39 37 69 81 57 86 71
100 71 76 0 -8 5 -18 10 -21 6 -4 10 -3 9 2 -4 21 2 32 15 27 8 -3 29 10 48
29 40 39 69 126 74 222 6 102 12 128 39 189 50 112 68 232 69 451 0 184 -16
289 -74 468 -54 167 -156 321 -329 493 -180 180 -348 274 -551 310 -14 3 -36
7 -50 9 -67 13 -245 26 -252 20z m3122 -3726 c0 -11 -3 -11 -24 -3 -23 9 -20
23 4 17 11 -3 20 -9 20 -14z m-956 -344 c3 -8 1 -15 -4 -15 -6 0 -10 7 -10 15
0 8 2 15 4 15 2 0 6 -7 10 -15z m-221 -2419 c-3 -16 -10 -23 -19 -19 -13 5
-12 8 2 24 22 24 22 24 17 -5z"/>
</g>
</svg>
